solid stl file generated from AC3D
 facet normal 0.000000 -1.000000 0.000000
  outer loop
   vertex -0.112062 -0.088821 -0.343431
   vertex -0.006266 -0.088821 0.086899
   vertex -0.112062 -0.088821 0.086899
  endloop
 endfacet
 facet normal 0.000000 -1.000000 0.000000
  outer loop
   vertex -0.006266 -0.088821 0.086899
   vertex -0.112062 -0.088821 -0.343431
   vertex -0.006266 -0.088821 -0.343431
  endloop
 endfacet
 facet normal 0.000000 1.000000 0.000000
  outer loop
   vertex -0.006266 0.087190 -0.343431
   vertex -0.112062 0.087190 0.086899
   vertex -0.006266 0.087190 0.086899
  endloop
 endfacet
 facet normal 0.000000 1.000000 0.000000
  outer loop
   vertex -0.112062 0.087190 0.086899
   vertex -0.006266 0.087190 -0.343431
   vertex -0.112062 0.087190 -0.343431
  endloop
 endfacet
 facet normal 0.000000 0.000000 1.000000
  outer loop
   vertex -0.112062 0.087190 0.086899
   vertex -0.006266 -0.088821 0.086899
   vertex -0.006266 0.087190 0.086899
  endloop
 endfacet
 facet normal 0.000000 0.000000 1.000000
  outer loop
   vertex -0.006266 -0.088821 0.086899
   vertex -0.112062 0.087190 0.086899
   vertex -0.112062 -0.088821 0.086899
  endloop
 endfacet
 facet normal 0.000000 0.000000 -1.000000
  outer loop
   vertex -0.112062 -0.088821 -0.343431
   vertex -0.006266 0.087190 -0.343431
   vertex -0.006266 -0.088821 -0.343431
  endloop
 endfacet
 facet normal 0.000000 0.000000 -1.000000
  outer loop
   vertex -0.006266 0.087190 -0.343431
   vertex -0.112062 -0.088821 -0.343431
   vertex -0.112062 0.087190 -0.343431
  endloop
 endfacet
 facet normal -1.000000 0.000000 0.000000
  outer loop
   vertex -0.112062 -0.088821 -0.343431
   vertex -0.112062 0.087190 0.086899
   vertex -0.112062 0.087190 -0.343431
  endloop
 endfacet
 facet normal -1.000000 0.000000 0.000000
  outer loop
   vertex -0.112062 0.087190 0.086899
   vertex -0.112062 -0.088821 -0.343431
   vertex -0.112062 -0.088821 0.086899
  endloop
 endfacet
 facet normal 1.000000 0.000000 0.000000
  outer loop
   vertex -0.006266 -0.088821 0.086899
   vertex -0.006266 0.087190 -0.343431
   vertex -0.006266 0.087190 0.086899
  endloop
 endfacet
 facet normal 1.000000 0.000000 0.000000
  outer loop
   vertex -0.006266 0.087190 -0.343431
   vertex -0.006266 -0.088821 0.086899
   vertex -0.006266 -0.088821 -0.343431
  endloop
 endfacet
endsolid
