solid OBJECT
  facet normal -1.007909e-001 9.949076e-001 0.000000e+000
    outer loop
      vertex 3.686526e-004 3.740292e-002 1.284248e-004
      vertex -7.132723e-003 3.664298e-002 1.284248e-004
      vertex -7.132723e-003 3.664298e-002 2.024435e-002
    endloop
  endfacet
  facet normal -2.905444e-001 9.568615e-001 0.000000e+000
    outer loop
      vertex -7.132723e-003 3.664298e-002 1.284248e-004
      vertex -1.377074e-002 3.462739e-002 1.284248e-004
      vertex -7.132723e-003 3.664298e-002 2.024435e-002
    endloop
  endfacet
  facet normal -4.661267e-001 8.847180e-001 0.000000e+000
    outer loop
      vertex -1.377074e-002 3.462739e-002 1.284248e-004
      vertex -2.019622e-002 3.124203e-002 1.284248e-004
      vertex -2.019622e-002 3.124203e-002 2.024435e-002
    endloop
  endfacet
  facet normal -6.297432e-001 7.768034e-001 0.000000e+000
    outer loop
      vertex -2.019622e-002 3.124203e-002 1.284248e-004
      vertex -2.594391e-002 2.658246e-002 1.284248e-004
      vertex -2.019622e-002 3.124203e-002 2.024435e-002
    endloop
  endfacet
  facet normal -7.692613e-001 6.389343e-001 0.000000e+000
    outer loop
      vertex -2.594391e-002 2.658246e-002 1.284248e-004
      vertex -3.059134e-002 2.098707e-002 1.284248e-004
      vertex -3.059134e-002 2.098707e-002 2.024435e-002
    endloop
  endfacet
  facet normal -8.781084e-001 4.784617e-001 0.000000e+000
    outer loop
      vertex -3.059134e-002 2.098707e-002 1.284248e-004
      vertex -3.405135e-002 1.463701e-002 1.284248e-004
      vertex -3.059134e-002 2.098707e-002 2.024435e-002
    endloop
  endfacet
  facet normal -9.553287e-001 2.955453e-001 0.000000e+000
    outer loop
      vertex -3.405135e-002 1.463701e-002 1.284248e-004
      vertex -3.630369e-002 7.356482e-003 1.284248e-004
      vertex -3.630369e-002 7.356482e-003 2.024435e-002
    endloop
  endfacet
  facet normal -9.951049e-001 9.882463e-002 0.000000e+000
    outer loop
      vertex -3.630369e-002 7.356482e-003 1.284248e-004
      vertex -3.703427e-002 1.038140e-017 1.284248e-004
      vertex -3.703427e-002 1.038140e-017 2.024435e-002
    endloop
  endfacet
  facet normal -9.949076e-001 -1.007914e-001 0.000000e+000
    outer loop
      vertex -3.703427e-002 1.038140e-017 1.284248e-004
      vertex -3.627432e-002 -7.501375e-003 1.284248e-004
      vertex -3.627432e-002 -7.501375e-003 2.024435e-002
    endloop
  endfacet
  facet normal -9.568615e-001 -2.905444e-001 0.000000e+000
    outer loop
      vertex -3.627432e-002 -7.501375e-003 1.284248e-004
      vertex -3.425873e-002 -1.413939e-002 1.284248e-004
      vertex -3.425873e-002 -1.413939e-002 2.024435e-002
    endloop
  endfacet
  facet normal -8.847181e-001 -4.661265e-001 0.000000e+000
    outer loop
      vertex -3.425873e-002 -1.413939e-002 1.284248e-004
      vertex -3.087337e-002 -2.056488e-002 1.284248e-004
      vertex -3.087337e-002 -2.056488e-002 2.024435e-002
    endloop
  endfacet
  facet normal -7.768035e-001 -6.297430e-001 0.000000e+000
    outer loop
      vertex -3.087337e-002 -2.056488e-002 1.284248e-004
      vertex -2.621381e-002 -2.631257e-002 1.284248e-004
      vertex -3.087337e-002 -2.056488e-002 2.024435e-002
    endloop
  endfacet
  facet normal -6.389343e-001 -7.692613e-001 0.000000e+000
    outer loop
      vertex -2.621381e-002 -2.631257e-002 1.284248e-004
      vertex -2.061842e-002 -3.095999e-002 1.284248e-004
      vertex -2.061842e-002 -3.095999e-002 2.024435e-002
    endloop
  endfacet
  facet normal -4.784614e-001 -8.781086e-001 0.000000e+000
    outer loop
      vertex -2.061842e-002 -3.095999e-002 1.284248e-004
      vertex -1.426836e-002 -3.442000e-002 1.284248e-004
      vertex -2.061842e-002 -3.095999e-002 2.024435e-002
    endloop
  endfacet
  facet normal -2.955453e-001 -9.553287e-001 0.000000e+000
    outer loop
      vertex -1.426836e-002 -3.442000e-002 1.284248e-004
      vertex -6.987829e-003 -3.667234e-002 1.284248e-004
      vertex -6.987829e-003 -3.667234e-002 2.024435e-002
    endloop
  endfacet
  facet normal -9.882463e-002 -9.951049e-001 0.000000e+000
    outer loop
      vertex -6.987829e-003 -3.667234e-002 1.284248e-004
      vertex 3.686526e-004 -3.740292e-002 1.284248e-004
      vertex 3.686526e-004 -3.740292e-002 2.024435e-002
    endloop
  endfacet
  facet normal 1.007909e-001 -9.949076e-001 0.000000e+000
    outer loop
      vertex 3.686526e-004 -3.740292e-002 1.284248e-004
      vertex 7.870028e-003 -3.664298e-002 1.284248e-004
      vertex 7.870028e-003 -3.664298e-002 2.024435e-002
    endloop
  endfacet
  facet normal 2.905444e-001 -9.568615e-001 0.000000e+000
    outer loop
      vertex 7.870028e-003 -3.664298e-002 1.284248e-004
      vertex 1.450804e-002 -3.462739e-002 1.284248e-004
      vertex 1.450804e-002 -3.462739e-002 2.024435e-002
    endloop
  endfacet
  facet normal 4.661268e-001 -8.847179e-001 0.000000e+000
    outer loop
      vertex 1.450804e-002 -3.462739e-002 1.284248e-004
      vertex 2.093353e-002 -3.124203e-002 1.284248e-004
      vertex 2.093353e-002 -3.124203e-002 2.024435e-002
    endloop
  endfacet
  facet normal 6.297430e-001 -7.768035e-001 0.000000e+000
    outer loop
      vertex 2.093353e-002 -3.124203e-002 1.284248e-004
      vertex 2.668122e-002 -2.658246e-002 1.284248e-004
      vertex 2.668122e-002 -2.658246e-002 2.024435e-002
    endloop
  endfacet
  facet normal 7.692614e-001 -6.389341e-001 0.000000e+000
    outer loop
      vertex 2.668122e-002 -2.658246e-002 1.284248e-004
      vertex 3.132864e-002 -2.098707e-002 1.284248e-004
      vertex 3.132864e-002 -2.098707e-002 2.024435e-002
    endloop
  endfacet
  facet normal 8.781085e-001 -4.784615e-001 0.000000e+000
    outer loop
      vertex 3.132864e-002 -2.098707e-002 1.284248e-004
      vertex 3.478865e-002 -1.463701e-002 1.284248e-004
      vertex 3.478865e-002 -1.463701e-002 2.024435e-002
    endloop
  endfacet
  facet normal 9.553287e-001 -2.955453e-001 0.000000e+000
    outer loop
      vertex 3.478865e-002 -1.463701e-002 1.284248e-004
      vertex 3.704099e-002 -7.356482e-003 1.284248e-004
      vertex 3.704099e-002 -7.356482e-003 2.024435e-002
    endloop
  endfacet
  facet normal 9.951048e-001 -9.882513e-002 0.000000e+000
    outer loop
      vertex 3.704099e-002 -7.356482e-003 1.284248e-004
      vertex 3.777157e-002 4.152558e-018 1.284248e-004
      vertex 3.704099e-002 -7.356482e-003 2.024435e-002
    endloop
  endfacet
  facet normal 9.949076e-001 1.007914e-001 0.000000e+000
    outer loop
      vertex 3.777157e-002 4.152558e-018 1.284248e-004
      vertex 3.701163e-002 7.501375e-003 1.284248e-004
      vertex 3.777157e-002 4.152558e-018 2.024435e-002
    endloop
  endfacet
  facet normal 9.568615e-001 2.905444e-001 0.000000e+000
    outer loop
      vertex 3.701163e-002 7.501375e-003 1.284248e-004
      vertex 3.499604e-002 1.413939e-002 1.284248e-004
      vertex 3.701163e-002 7.501375e-003 2.024435e-002
    endloop
  endfacet
  facet normal 8.847181e-001 4.661265e-001 0.000000e+000
    outer loop
      vertex 3.499604e-002 1.413939e-002 1.284248e-004
      vertex 3.161068e-002 2.056488e-002 1.284248e-004
      vertex 3.499604e-002 1.413939e-002 2.024435e-002
    endloop
  endfacet
  facet normal 7.768034e-001 6.297432e-001 0.000000e+000
    outer loop
      vertex 3.161068e-002 2.056488e-002 1.284248e-004
      vertex 2.695111e-002 2.631257e-002 1.284248e-004
      vertex 2.695111e-002 2.631257e-002 2.024435e-002
    endloop
  endfacet
  facet normal 6.389343e-001 7.692613e-001 0.000000e+000
    outer loop
      vertex 2.695111e-002 2.631257e-002 1.284248e-004
      vertex 2.135572e-002 3.095999e-002 1.284248e-004
      vertex 2.135572e-002 3.095999e-002 2.024435e-002
    endloop
  endfacet
  facet normal 4.784615e-001 8.781085e-001 0.000000e+000
    outer loop
      vertex 2.135572e-002 3.095999e-002 1.284248e-004
      vertex 1.500566e-002 3.442000e-002 1.284248e-004
      vertex 1.500566e-002 3.442000e-002 2.024435e-002
    endloop
  endfacet
  facet normal 2.955453e-001 9.553287e-001 0.000000e+000
    outer loop
      vertex 1.500566e-002 3.442000e-002 1.284248e-004
      vertex 7.725134e-003 3.667234e-002 1.284248e-004
      vertex 7.725134e-003 3.667234e-002 2.024435e-002
    endloop
  endfacet
  facet normal 9.882463e-002 9.951049e-001 0.000000e+000
    outer loop
      vertex 7.725134e-003 3.667234e-002 1.284248e-004
      vertex 3.686526e-004 3.740292e-002 1.284248e-004
      vertex 7.725134e-003 3.667234e-002 2.024435e-002
    endloop
  endfacet
  facet normal 9.882463e-002 9.951049e-001 0.000000e+000
    outer loop
      vertex 3.686526e-004 3.740292e-002 2.024435e-002
      vertex 7.725134e-003 3.667234e-002 2.024435e-002
      vertex 3.686526e-004 3.740292e-002 1.284248e-004
    endloop
  endfacet
  facet normal 2.955453e-001 9.553287e-001 0.000000e+000
    outer loop
      vertex 7.725134e-003 3.667234e-002 2.024435e-002
      vertex 1.500566e-002 3.442000e-002 2.024435e-002
      vertex 1.500566e-002 3.442000e-002 1.284248e-004
    endloop
  endfacet
  facet normal 4.784615e-001 8.781085e-001 0.000000e+000
    outer loop
      vertex 1.500566e-002 3.442000e-002 2.024435e-002
      vertex 2.135572e-002 3.095999e-002 2.024435e-002
      vertex 2.135572e-002 3.095999e-002 1.284248e-004
    endloop
  endfacet
  facet normal 6.389343e-001 7.692613e-001 0.000000e+000
    outer loop
      vertex 2.135572e-002 3.095999e-002 2.024435e-002
      vertex 2.695111e-002 2.631257e-002 2.024435e-002
      vertex 2.695111e-002 2.631257e-002 1.284248e-004
    endloop
  endfacet
  facet normal 7.768034e-001 6.297432e-001 0.000000e+000
    outer loop
      vertex 2.695111e-002 2.631257e-002 2.024435e-002
      vertex 3.161068e-002 2.056488e-002 2.024435e-002
      vertex 3.161068e-002 2.056488e-002 1.284248e-004
    endloop
  endfacet
  facet normal 8.847181e-001 4.661265e-001 0.000000e+000
    outer loop
      vertex 3.161068e-002 2.056488e-002 2.024435e-002
      vertex 3.499604e-002 1.413939e-002 2.024435e-002
      vertex 3.161068e-002 2.056488e-002 1.284248e-004
    endloop
  endfacet
  facet normal 9.568615e-001 2.905444e-001 0.000000e+000
    outer loop
      vertex 3.499604e-002 1.413939e-002 2.024435e-002
      vertex 3.701163e-002 7.501375e-003 2.024435e-002
      vertex 3.499604e-002 1.413939e-002 1.284248e-004
    endloop
  endfacet
  facet normal 9.949076e-001 1.007914e-001 0.000000e+000
    outer loop
      vertex 3.701163e-002 7.501375e-003 2.024435e-002
      vertex 3.777157e-002 4.152558e-018 2.024435e-002
      vertex 3.701163e-002 7.501375e-003 1.284248e-004
    endloop
  endfacet
  facet normal 9.951048e-001 -9.882513e-002 0.000000e+000
    outer loop
      vertex 3.777157e-002 4.152558e-018 2.024435e-002
      vertex 3.704099e-002 -7.356482e-003 2.024435e-002
      vertex 3.777157e-002 4.152558e-018 1.284248e-004
    endloop
  endfacet
  facet normal 9.553287e-001 -2.955453e-001 0.000000e+000
    outer loop
      vertex 3.704099e-002 -7.356482e-003 2.024435e-002
      vertex 3.478865e-002 -1.463701e-002 2.024435e-002
      vertex 3.478865e-002 -1.463701e-002 1.284248e-004
    endloop
  endfacet
  facet normal 8.781085e-001 -4.784615e-001 0.000000e+000
    outer loop
      vertex 3.478865e-002 -1.463701e-002 2.024435e-002
      vertex 3.132864e-002 -2.098707e-002 2.024435e-002
      vertex 3.132864e-002 -2.098707e-002 1.284248e-004
    endloop
  endfacet
  facet normal 7.692614e-001 -6.389341e-001 0.000000e+000
    outer loop
      vertex 3.132864e-002 -2.098707e-002 2.024435e-002
      vertex 2.668122e-002 -2.658246e-002 2.024435e-002
      vertex 2.668122e-002 -2.658246e-002 1.284248e-004
    endloop
  endfacet
  facet normal 6.297430e-001 -7.768035e-001 0.000000e+000
    outer loop
      vertex 2.668122e-002 -2.658246e-002 2.024435e-002
      vertex 2.093353e-002 -3.124203e-002 2.024435e-002
      vertex 2.093353e-002 -3.124203e-002 1.284248e-004
    endloop
  endfacet
  facet normal 4.661268e-001 -8.847179e-001 0.000000e+000
    outer loop
      vertex 2.093353e-002 -3.124203e-002 2.024435e-002
      vertex 1.450804e-002 -3.462739e-002 2.024435e-002
      vertex 1.450804e-002 -3.462739e-002 1.284248e-004
    endloop
  endfacet
  facet normal 2.905444e-001 -9.568615e-001 0.000000e+000
    outer loop
      vertex 1.450804e-002 -3.462739e-002 2.024435e-002
      vertex 7.870028e-003 -3.664298e-002 2.024435e-002
      vertex 7.870028e-003 -3.664298e-002 1.284248e-004
    endloop
  endfacet
  facet normal 1.007909e-001 -9.949076e-001 0.000000e+000
    outer loop
      vertex 7.870028e-003 -3.664298e-002 2.024435e-002
      vertex 3.686526e-004 -3.740292e-002 2.024435e-002
      vertex 3.686526e-004 -3.740292e-002 1.284248e-004
    endloop
  endfacet
  facet normal -9.882463e-002 -9.951049e-001 0.000000e+000
    outer loop
      vertex 3.686526e-004 -3.740292e-002 2.024435e-002
      vertex -6.987829e-003 -3.667234e-002 2.024435e-002
      vertex -6.987829e-003 -3.667234e-002 1.284248e-004
    endloop
  endfacet
  facet normal -2.955453e-001 -9.553287e-001 0.000000e+000
    outer loop
      vertex -6.987829e-003 -3.667234e-002 2.024435e-002
      vertex -1.426836e-002 -3.442000e-002 2.024435e-002
      vertex -1.426836e-002 -3.442000e-002 1.284248e-004
    endloop
  endfacet
  facet normal -4.784614e-001 -8.781086e-001 0.000000e+000
    outer loop
      vertex -1.426836e-002 -3.442000e-002 2.024435e-002
      vertex -2.061842e-002 -3.095999e-002 2.024435e-002
      vertex -1.426836e-002 -3.442000e-002 1.284248e-004
    endloop
  endfacet
  facet normal -6.389343e-001 -7.692613e-001 0.000000e+000
    outer loop
      vertex -2.061842e-002 -3.095999e-002 2.024435e-002
      vertex -2.621381e-002 -2.631257e-002 2.024435e-002
      vertex -2.621381e-002 -2.631257e-002 1.284248e-004
    endloop
  endfacet
  facet normal -7.768035e-001 -6.297430e-001 0.000000e+000
    outer loop
      vertex -2.621381e-002 -2.631257e-002 2.024435e-002
      vertex -3.087337e-002 -2.056488e-002 2.024435e-002
      vertex -2.621381e-002 -2.631257e-002 1.284248e-004
    endloop
  endfacet
  facet normal -8.847181e-001 -4.661265e-001 0.000000e+000
    outer loop
      vertex -3.087337e-002 -2.056488e-002 2.024435e-002
      vertex -3.425873e-002 -1.413939e-002 2.024435e-002
      vertex -3.425873e-002 -1.413939e-002 1.284248e-004
    endloop
  endfacet
  facet normal -9.568615e-001 -2.905444e-001 0.000000e+000
    outer loop
      vertex -3.425873e-002 -1.413939e-002 2.024435e-002
      vertex -3.627432e-002 -7.501375e-003 2.024435e-002
      vertex -3.627432e-002 -7.501375e-003 1.284248e-004
    endloop
  endfacet
  facet normal -9.949076e-001 -1.007914e-001 0.000000e+000
    outer loop
      vertex -3.627432e-002 -7.501375e-003 2.024435e-002
      vertex -3.703427e-002 1.038140e-017 2.024435e-002
      vertex -3.703427e-002 1.038140e-017 1.284248e-004
    endloop
  endfacet
  facet normal -9.951049e-001 9.882463e-002 0.000000e+000
    outer loop
      vertex -3.703427e-002 1.038140e-017 2.024435e-002
      vertex -3.630369e-002 7.356482e-003 2.024435e-002
      vertex -3.630369e-002 7.356482e-003 1.284248e-004
    endloop
  endfacet
  facet normal -9.553287e-001 2.955453e-001 0.000000e+000
    outer loop
      vertex -3.630369e-002 7.356482e-003 2.024435e-002
      vertex -3.405135e-002 1.463701e-002 2.024435e-002
      vertex -3.405135e-002 1.463701e-002 1.284248e-004
    endloop
  endfacet
  facet normal -8.781084e-001 4.784617e-001 0.000000e+000
    outer loop
      vertex -3.405135e-002 1.463701e-002 2.024435e-002
      vertex -3.059134e-002 2.098707e-002 2.024435e-002
      vertex -3.405135e-002 1.463701e-002 1.284248e-004
    endloop
  endfacet
  facet normal -7.692613e-001 6.389343e-001 0.000000e+000
    outer loop
      vertex -3.059134e-002 2.098707e-002 2.024435e-002
      vertex -2.594391e-002 2.658246e-002 2.024435e-002
      vertex -2.594391e-002 2.658246e-002 1.284248e-004
    endloop
  endfacet
  facet normal -6.297432e-001 7.768034e-001 0.000000e+000
    outer loop
      vertex -2.594391e-002 2.658246e-002 2.024435e-002
      vertex -2.019622e-002 3.124203e-002 2.024435e-002
      vertex -2.594391e-002 2.658246e-002 1.284248e-004
    endloop
  endfacet
  facet normal -4.661267e-001 8.847180e-001 0.000000e+000
    outer loop
      vertex -2.019622e-002 3.124203e-002 2.024435e-002
      vertex -1.377074e-002 3.462739e-002 2.024435e-002
      vertex -1.377074e-002 3.462739e-002 1.284248e-004
    endloop
  endfacet
  facet normal -2.905444e-001 9.568615e-001 0.000000e+000
    outer loop
      vertex -1.377074e-002 3.462739e-002 2.024435e-002
      vertex -7.132723e-003 3.664298e-002 2.024435e-002
      vertex -1.377074e-002 3.462739e-002 1.284248e-004
    endloop
  endfacet
  facet normal -1.007909e-001 9.949076e-001 0.000000e+000
    outer loop
      vertex -7.132723e-003 3.664298e-002 2.024435e-002
      vertex 3.686526e-004 3.740292e-002 2.024435e-002
      vertex 3.686526e-004 3.740292e-002 1.284248e-004
    endloop
  endfacet
  facet normal 0.000000e+000 0.000000e+000 -1.000000e+000
    outer loop
      vertex 1.907011e-002 1.870146e-002 1.284248e-004
      vertex 1.907011e-002 0.000000e+000 1.284248e-004
      vertex 3.686526e-004 0.000000e+000 1.284248e-004
    endloop
  endfacet
  facet normal 0.000000e+000 0.000000e+000 -1.000000e+000
    outer loop
      vertex 1.907011e-002 1.870146e-002 1.284248e-004
      vertex 3.686526e-004 0.000000e+000 1.284248e-004
      vertex 3.686526e-004 1.870146e-002 1.284248e-004
    endloop
  endfacet
  facet normal 0.000000e+000 0.000000e+000 -1.000000e+000
    outer loop
      vertex 3.686526e-004 1.870146e-002 1.284248e-004
      vertex 3.686526e-004 0.000000e+000 1.284248e-004
      vertex -1.833281e-002 0.000000e+000 1.284248e-004
    endloop
  endfacet
  facet normal 0.000000e+000 0.000000e+000 -1.000000e+000
    outer loop
      vertex 3.686526e-004 1.870146e-002 1.284248e-004
      vertex -1.833281e-002 0.000000e+000 1.284248e-004
      vertex -1.833281e-002 1.870146e-002 1.284248e-004
    endloop
  endfacet
  facet normal 0.000000e+000 0.000000e+000 -1.000000e+000
    outer loop
      vertex 3.686526e-004 0.000000e+000 1.284248e-004
      vertex 3.686526e-004 -1.870146e-002 1.284248e-004
      vertex -1.833281e-002 -1.870146e-002 1.284248e-004
    endloop
  endfacet
  facet normal 0.000000e+000 0.000000e+000 -1.000000e+000
    outer loop
      vertex 3.686526e-004 0.000000e+000 1.284248e-004
      vertex -1.833281e-002 -1.870146e-002 1.284248e-004
      vertex -1.833281e-002 0.000000e+000 1.284248e-004
    endloop
  endfacet
  facet normal 0.000000e+000 0.000000e+000 -1.000000e+000
    outer loop
      vertex 1.907011e-002 0.000000e+000 1.284248e-004
      vertex 1.907011e-002 -1.870146e-002 1.284248e-004
      vertex 3.686526e-004 -1.870146e-002 1.284248e-004
    endloop
  endfacet
  facet normal 0.000000e+000 0.000000e+000 -1.000000e+000
    outer loop
      vertex 1.907011e-002 0.000000e+000 1.284248e-004
      vertex 3.686526e-004 -1.870146e-002 1.284248e-004
      vertex 3.686526e-004 0.000000e+000 1.284248e-004
    endloop
  endfacet
  facet normal 0.000000e+000 0.000000e+000 -1.000000e+000
    outer loop
      vertex 3.686526e-004 3.740292e-002 1.284248e-004
      vertex 3.686526e-004 1.870146e-002 1.284248e-004
      vertex -7.132723e-003 3.664298e-002 1.284248e-004
    endloop
  endfacet
  facet normal 0.000000e+000 0.000000e+000 -1.000000e+000
    outer loop
      vertex -7.132723e-003 3.664298e-002 1.284248e-004
      vertex 3.686526e-004 1.870146e-002 1.284248e-004
      vertex -1.377074e-002 3.462739e-002 1.284248e-004
    endloop
  endfacet
  facet normal 0.000000e+000 0.000000e+000 -1.000000e+000
    outer loop
      vertex -1.377074e-002 3.462739e-002 1.284248e-004
      vertex -1.833281e-002 1.870146e-002 1.284248e-004
      vertex -2.019622e-002 3.124203e-002 1.284248e-004
    endloop
  endfacet
  facet normal 0.000000e+000 0.000000e+000 -1.000000e+000
    outer loop
      vertex -2.019622e-002 3.124203e-002 1.284248e-004
      vertex -1.833281e-002 1.870146e-002 1.284248e-004
      vertex -2.594391e-002 2.658246e-002 1.284248e-004
    endloop
  endfacet
  facet normal 0.000000e+000 0.000000e+000 -1.000000e+000
    outer loop
      vertex -2.594391e-002 2.658246e-002 1.284248e-004
      vertex -1.833281e-002 1.870146e-002 1.284248e-004
      vertex -3.059134e-002 2.098707e-002 1.284248e-004
    endloop
  endfacet
  facet normal 0.000000e+000 0.000000e+000 -1.000000e+000
    outer loop
      vertex -3.059134e-002 2.098707e-002 1.284248e-004
      vertex -1.833281e-002 1.870146e-002 1.284248e-004
      vertex -3.405135e-002 1.463701e-002 1.284248e-004
    endloop
  endfacet
  facet normal 0.000000e+000 0.000000e+000 -1.000000e+000
    outer loop
      vertex -3.405135e-002 1.463701e-002 1.284248e-004
      vertex -1.833281e-002 0.000000e+000 1.284248e-004
      vertex -3.630369e-002 7.356482e-003 1.284248e-004
    endloop
  endfacet
  facet normal 0.000000e+000 0.000000e+000 -1.000000e+000
    outer loop
      vertex -3.630369e-002 7.356482e-003 1.284248e-004
      vertex -1.833281e-002 0.000000e+000 1.284248e-004
      vertex -3.703427e-002 1.038140e-017 1.284248e-004
    endloop
  endfacet
  facet normal 0.000000e+000 0.000000e+000 -1.000000e+000
    outer loop
      vertex -3.703427e-002 1.038140e-017 1.284248e-004
      vertex -1.833281e-002 0.000000e+000 1.284248e-004
      vertex -3.627432e-002 -7.501375e-003 1.284248e-004
    endloop
  endfacet
  facet normal 0.000000e+000 0.000000e+000 -1.000000e+000
    outer loop
      vertex -3.627432e-002 -7.501375e-003 1.284248e-004
      vertex -1.833281e-002 0.000000e+000 1.284248e-004
      vertex -3.425873e-002 -1.413939e-002 1.284248e-004
    endloop
  endfacet
  facet normal 0.000000e+000 0.000000e+000 -1.000000e+000
    outer loop
      vertex -3.425873e-002 -1.413939e-002 1.284248e-004
      vertex -1.833281e-002 -1.870146e-002 1.284248e-004
      vertex -3.087337e-002 -2.056488e-002 1.284248e-004
    endloop
  endfacet
  facet normal 0.000000e+000 0.000000e+000 -1.000000e+000
    outer loop
      vertex -3.087337e-002 -2.056488e-002 1.284248e-004
      vertex -1.833281e-002 -1.870146e-002 1.284248e-004
      vertex -2.621381e-002 -2.631257e-002 1.284248e-004
    endloop
  endfacet
  facet normal 0.000000e+000 0.000000e+000 -1.000000e+000
    outer loop
      vertex -2.621381e-002 -2.631257e-002 1.284248e-004
      vertex -1.833281e-002 -1.870146e-002 1.284248e-004
      vertex -2.061842e-002 -3.095999e-002 1.284248e-004
    endloop
  endfacet
  facet normal 0.000000e+000 0.000000e+000 -1.000000e+000
    outer loop
      vertex -2.061842e-002 -3.095999e-002 1.284248e-004
      vertex -1.833281e-002 -1.870146e-002 1.284248e-004
      vertex -1.426836e-002 -3.442000e-002 1.284248e-004
    endloop
  endfacet
  facet normal 0.000000e+000 0.000000e+000 -1.000000e+000
    outer loop
      vertex -1.426836e-002 -3.442000e-002 1.284248e-004
      vertex 3.686526e-004 -1.870146e-002 1.284248e-004
      vertex -6.987829e-003 -3.667234e-002 1.284248e-004
    endloop
  endfacet
  facet normal 0.000000e+000 0.000000e+000 -1.000000e+000
    outer loop
      vertex -6.987829e-003 -3.667234e-002 1.284248e-004
      vertex 3.686526e-004 -1.870146e-002 1.284248e-004
      vertex 3.686526e-004 -3.740292e-002 1.284248e-004
    endloop
  endfacet
  facet normal 0.000000e+000 0.000000e+000 -1.000000e+000
    outer loop
      vertex 3.686526e-004 -3.740292e-002 1.284248e-004
      vertex 3.686526e-004 -1.870146e-002 1.284248e-004
      vertex 7.870028e-003 -3.664298e-002 1.284248e-004
    endloop
  endfacet
  facet normal 0.000000e+000 0.000000e+000 -1.000000e+000
    outer loop
      vertex 7.870028e-003 -3.664298e-002 1.284248e-004
      vertex 3.686526e-004 -1.870146e-002 1.284248e-004
      vertex 1.450804e-002 -3.462739e-002 1.284248e-004
    endloop
  endfacet
  facet normal 0.000000e+000 0.000000e+000 -1.000000e+000
    outer loop
      vertex 1.450804e-002 -3.462739e-002 1.284248e-004
      vertex 1.907011e-002 -1.870146e-002 1.284248e-004
      vertex 2.093353e-002 -3.124203e-002 1.284248e-004
    endloop
  endfacet
  facet normal 0.000000e+000 0.000000e+000 -1.000000e+000
    outer loop
      vertex 2.093353e-002 -3.124203e-002 1.284248e-004
      vertex 1.907011e-002 -1.870146e-002 1.284248e-004
      vertex 2.668122e-002 -2.658246e-002 1.284248e-004
    endloop
  endfacet
  facet normal 0.000000e+000 0.000000e+000 -1.000000e+000
    outer loop
      vertex 2.668122e-002 -2.658246e-002 1.284248e-004
      vertex 1.907011e-002 -1.870146e-002 1.284248e-004
      vertex 3.132864e-002 -2.098707e-002 1.284248e-004
    endloop
  endfacet
  facet normal 0.000000e+000 0.000000e+000 -1.000000e+000
    outer loop
      vertex 3.132864e-002 -2.098707e-002 1.284248e-004
      vertex 1.907011e-002 -1.870146e-002 1.284248e-004
      vertex 3.478865e-002 -1.463701e-002 1.284248e-004
    endloop
  endfacet
  facet normal 0.000000e+000 0.000000e+000 -1.000000e+000
    outer loop
      vertex 3.478865e-002 -1.463701e-002 1.284248e-004
      vertex 1.907011e-002 0.000000e+000 1.284248e-004
      vertex 3.704099e-002 -7.356482e-003 1.284248e-004
    endloop
  endfacet
  facet normal 0.000000e+000 0.000000e+000 -1.000000e+000
    outer loop
      vertex 3.704099e-002 -7.356482e-003 1.284248e-004
      vertex 1.907011e-002 0.000000e+000 1.284248e-004
      vertex 3.777157e-002 4.152558e-018 1.284248e-004
    endloop
  endfacet
  facet normal 0.000000e+000 0.000000e+000 -1.000000e+000
    outer loop
      vertex 3.777157e-002 4.152558e-018 1.284248e-004
      vertex 1.907011e-002 0.000000e+000 1.284248e-004
      vertex 3.701163e-002 7.501375e-003 1.284248e-004
    endloop
  endfacet
  facet normal 0.000000e+000 0.000000e+000 -1.000000e+000
    outer loop
      vertex 3.701163e-002 7.501375e-003 1.284248e-004
      vertex 1.907011e-002 0.000000e+000 1.284248e-004
      vertex 3.499604e-002 1.413939e-002 1.284248e-004
    endloop
  endfacet
  facet normal 0.000000e+000 0.000000e+000 -1.000000e+000
    outer loop
      vertex 3.499604e-002 1.413939e-002 1.284248e-004
      vertex 1.907011e-002 1.870146e-002 1.284248e-004
      vertex 3.161068e-002 2.056488e-002 1.284248e-004
    endloop
  endfacet
  facet normal 0.000000e+000 0.000000e+000 -1.000000e+000
    outer loop
      vertex 3.161068e-002 2.056488e-002 1.284248e-004
      vertex 1.907011e-002 1.870146e-002 1.284248e-004
      vertex 2.695111e-002 2.631257e-002 1.284248e-004
    endloop
  endfacet
  facet normal 0.000000e+000 0.000000e+000 -1.000000e+000
    outer loop
      vertex 2.695111e-002 2.631257e-002 1.284248e-004
      vertex 1.907011e-002 1.870146e-002 1.284248e-004
      vertex 2.135572e-002 3.095999e-002 1.284248e-004
    endloop
  endfacet
  facet normal 0.000000e+000 0.000000e+000 -1.000000e+000
    outer loop
      vertex 2.135572e-002 3.095999e-002 1.284248e-004
      vertex 1.907011e-002 1.870146e-002 1.284248e-004
      vertex 1.500566e-002 3.442000e-002 1.284248e-004
    endloop
  endfacet
  facet normal 0.000000e+000 0.000000e+000 -1.000000e+000
    outer loop
      vertex 1.500566e-002 3.442000e-002 1.284248e-004
      vertex 3.686526e-004 1.870146e-002 1.284248e-004
      vertex 7.725134e-003 3.667234e-002 1.284248e-004
    endloop
  endfacet
  facet normal 0.000000e+000 0.000000e+000 -1.000000e+000
    outer loop
      vertex 7.725134e-003 3.667234e-002 1.284248e-004
      vertex 3.686526e-004 1.870146e-002 1.284248e-004
      vertex 3.686526e-004 3.740292e-002 1.284248e-004
    endloop
  endfacet
  facet normal 0.000000e+000 0.000000e+000 -1.000000e+000
    outer loop
      vertex 3.686526e-004 1.870146e-002 1.284248e-004
      vertex 1.500566e-002 3.442000e-002 1.284248e-004
      vertex 1.907011e-002 1.870146e-002 1.284248e-004
    endloop
  endfacet
  facet normal 0.000000e+000 0.000000e+000 -1.000000e+000
    outer loop
      vertex 1.907011e-002 1.870146e-002 1.284248e-004
      vertex 3.499604e-002 1.413939e-002 1.284248e-004
      vertex 1.907011e-002 0.000000e+000 1.284248e-004
    endloop
  endfacet
  facet normal 0.000000e+000 0.000000e+000 -1.000000e+000
    outer loop
      vertex -1.833281e-002 1.870146e-002 1.284248e-004
      vertex -1.377074e-002 3.462739e-002 1.284248e-004
      vertex 3.686526e-004 1.870146e-002 1.284248e-004
    endloop
  endfacet
  facet normal 0.000000e+000 0.000000e+000 -1.000000e+000
    outer loop
      vertex -1.833281e-002 0.000000e+000 1.284248e-004
      vertex -3.405135e-002 1.463701e-002 1.284248e-004
      vertex -1.833281e-002 1.870146e-002 1.284248e-004
    endloop
  endfacet
  facet normal 0.000000e+000 0.000000e+000 -1.000000e+000
    outer loop
      vertex -1.833281e-002 -1.870146e-002 1.284248e-004
      vertex -3.425873e-002 -1.413939e-002 1.284248e-004
      vertex -1.833281e-002 0.000000e+000 1.284248e-004
    endloop
  endfacet
  facet normal 0.000000e+000 0.000000e+000 -1.000000e+000
    outer loop
      vertex 3.686526e-004 -1.870146e-002 1.284248e-004
      vertex -1.426836e-002 -3.442000e-002 1.284248e-004
      vertex -1.833281e-002 -1.870146e-002 1.284248e-004
    endloop
  endfacet
  facet normal 0.000000e+000 0.000000e+000 -1.000000e+000
    outer loop
      vertex 1.907011e-002 -1.870146e-002 1.284248e-004
      vertex 1.450804e-002 -3.462739e-002 1.284248e-004
      vertex 3.686526e-004 -1.870146e-002 1.284248e-004
    endloop
  endfacet
  facet normal 0.000000e+000 0.000000e+000 -1.000000e+000
    outer loop
      vertex 1.907011e-002 0.000000e+000 1.284248e-004
      vertex 3.478865e-002 -1.463701e-002 1.284248e-004
      vertex 1.907011e-002 -1.870146e-002 1.284248e-004
    endloop
  endfacet
  facet normal 0.000000e+000 0.000000e+000 1.000000e+000
    outer loop
      vertex 1.907011e-002 1.870146e-002 2.024435e-002
      vertex 3.686526e-004 1.870146e-002 2.024435e-002
      vertex 3.686526e-004 0.000000e+000 2.024435e-002
    endloop
  endfacet
  facet normal 0.000000e+000 0.000000e+000 1.000000e+000
    outer loop
      vertex 1.907011e-002 1.870146e-002 2.024435e-002
      vertex 3.686526e-004 0.000000e+000 2.024435e-002
      vertex 1.907011e-002 0.000000e+000 2.024435e-002
    endloop
  endfacet
  facet normal 0.000000e+000 0.000000e+000 1.000000e+000
    outer loop
      vertex 3.686526e-004 1.870146e-002 2.024435e-002
      vertex -1.833281e-002 1.870146e-002 2.024435e-002
      vertex -1.833281e-002 0.000000e+000 2.024435e-002
    endloop
  endfacet
  facet normal 0.000000e+000 0.000000e+000 1.000000e+000
    outer loop
      vertex 3.686526e-004 1.870146e-002 2.024435e-002
      vertex -1.833281e-002 0.000000e+000 2.024435e-002
      vertex 3.686526e-004 0.000000e+000 2.024435e-002
    endloop
  endfacet
  facet normal 0.000000e+000 0.000000e+000 1.000000e+000
    outer loop
      vertex 3.686526e-004 0.000000e+000 2.024435e-002
      vertex -1.833281e-002 0.000000e+000 2.024435e-002
      vertex -1.833281e-002 -1.870146e-002 2.024435e-002
    endloop
  endfacet
  facet normal 0.000000e+000 0.000000e+000 1.000000e+000
    outer loop
      vertex 3.686526e-004 0.000000e+000 2.024435e-002
      vertex -1.833281e-002 -1.870146e-002 2.024435e-002
      vertex 3.686526e-004 -1.870146e-002 2.024435e-002
    endloop
  endfacet
  facet normal 0.000000e+000 0.000000e+000 1.000000e+000
    outer loop
      vertex 1.907011e-002 0.000000e+000 2.024435e-002
      vertex 3.686526e-004 0.000000e+000 2.024435e-002
      vertex 3.686526e-004 -1.870146e-002 2.024435e-002
    endloop
  endfacet
  facet normal 0.000000e+000 0.000000e+000 1.000000e+000
    outer loop
      vertex 1.907011e-002 0.000000e+000 2.024435e-002
      vertex 3.686526e-004 -1.870146e-002 2.024435e-002
      vertex 1.907011e-002 -1.870146e-002 2.024435e-002
    endloop
  endfacet
  facet normal 0.000000e+000 0.000000e+000 1.000000e+000
    outer loop
      vertex 3.686526e-004 3.740292e-002 2.024435e-002
      vertex -7.132723e-003 3.664298e-002 2.024435e-002
      vertex 3.686526e-004 1.870146e-002 2.024435e-002
    endloop
  endfacet
  facet normal 0.000000e+000 0.000000e+000 1.000000e+000
    outer loop
      vertex -7.132723e-003 3.664298e-002 2.024435e-002
      vertex -1.377074e-002 3.462739e-002 2.024435e-002
      vertex 3.686526e-004 1.870146e-002 2.024435e-002
    endloop
  endfacet
  facet normal 0.000000e+000 0.000000e+000 1.000000e+000
    outer loop
      vertex -1.377074e-002 3.462739e-002 2.024435e-002
      vertex -2.019622e-002 3.124203e-002 2.024435e-002
      vertex -1.833281e-002 1.870146e-002 2.024435e-002
    endloop
  endfacet
  facet normal 0.000000e+000 0.000000e+000 1.000000e+000
    outer loop
      vertex -2.019622e-002 3.124203e-002 2.024435e-002
      vertex -2.594391e-002 2.658246e-002 2.024435e-002
      vertex -1.833281e-002 1.870146e-002 2.024435e-002
    endloop
  endfacet
  facet normal 0.000000e+000 0.000000e+000 1.000000e+000
    outer loop
      vertex -2.594391e-002 2.658246e-002 2.024435e-002
      vertex -3.059134e-002 2.098707e-002 2.024435e-002
      vertex -1.833281e-002 1.870146e-002 2.024435e-002
    endloop
  endfacet
  facet normal 0.000000e+000 0.000000e+000 1.000000e+000
    outer loop
      vertex -3.059134e-002 2.098707e-002 2.024435e-002
      vertex -3.405135e-002 1.463701e-002 2.024435e-002
      vertex -1.833281e-002 1.870146e-002 2.024435e-002
    endloop
  endfacet
  facet normal 0.000000e+000 0.000000e+000 1.000000e+000
    outer loop
      vertex -3.405135e-002 1.463701e-002 2.024435e-002
      vertex -3.630369e-002 7.356482e-003 2.024435e-002
      vertex -1.833281e-002 0.000000e+000 2.024435e-002
    endloop
  endfacet
  facet normal 0.000000e+000 0.000000e+000 1.000000e+000
    outer loop
      vertex -3.630369e-002 7.356482e-003 2.024435e-002
      vertex -3.703427e-002 1.038140e-017 2.024435e-002
      vertex -1.833281e-002 0.000000e+000 2.024435e-002
    endloop
  endfacet
  facet normal 0.000000e+000 0.000000e+000 1.000000e+000
    outer loop
      vertex -3.703427e-002 1.038140e-017 2.024435e-002
      vertex -3.627432e-002 -7.501375e-003 2.024435e-002
      vertex -1.833281e-002 0.000000e+000 2.024435e-002
    endloop
  endfacet
  facet normal 0.000000e+000 0.000000e+000 1.000000e+000
    outer loop
      vertex -3.627432e-002 -7.501375e-003 2.024435e-002
      vertex -3.425873e-002 -1.413939e-002 2.024435e-002
      vertex -1.833281e-002 0.000000e+000 2.024435e-002
    endloop
  endfacet
  facet normal 0.000000e+000 0.000000e+000 1.000000e+000
    outer loop
      vertex -3.425873e-002 -1.413939e-002 2.024435e-002
      vertex -3.087337e-002 -2.056488e-002 2.024435e-002
      vertex -1.833281e-002 -1.870146e-002 2.024435e-002
    endloop
  endfacet
  facet normal 0.000000e+000 0.000000e+000 1.000000e+000
    outer loop
      vertex -3.087337e-002 -2.056488e-002 2.024435e-002
      vertex -2.621381e-002 -2.631257e-002 2.024435e-002
      vertex -1.833281e-002 -1.870146e-002 2.024435e-002
    endloop
  endfacet
  facet normal 0.000000e+000 0.000000e+000 1.000000e+000
    outer loop
      vertex -2.621381e-002 -2.631257e-002 2.024435e-002
      vertex -2.061842e-002 -3.095999e-002 2.024435e-002
      vertex -1.833281e-002 -1.870146e-002 2.024435e-002
    endloop
  endfacet
  facet normal 0.000000e+000 0.000000e+000 1.000000e+000
    outer loop
      vertex -2.061842e-002 -3.095999e-002 2.024435e-002
      vertex -1.426836e-002 -3.442000e-002 2.024435e-002
      vertex -1.833281e-002 -1.870146e-002 2.024435e-002
    endloop
  endfacet
  facet normal 0.000000e+000 0.000000e+000 1.000000e+000
    outer loop
      vertex -1.426836e-002 -3.442000e-002 2.024435e-002
      vertex -6.987829e-003 -3.667234e-002 2.024435e-002
      vertex 3.686526e-004 -1.870146e-002 2.024435e-002
    endloop
  endfacet
  facet normal 0.000000e+000 0.000000e+000 1.000000e+000
    outer loop
      vertex -6.987829e-003 -3.667234e-002 2.024435e-002
      vertex 3.686526e-004 -3.740292e-002 2.024435e-002
      vertex 3.686526e-004 -1.870146e-002 2.024435e-002
    endloop
  endfacet
  facet normal 0.000000e+000 0.000000e+000 1.000000e+000
    outer loop
      vertex 3.686526e-004 -3.740292e-002 2.024435e-002
      vertex 7.870028e-003 -3.664298e-002 2.024435e-002
      vertex 3.686526e-004 -1.870146e-002 2.024435e-002
    endloop
  endfacet
  facet normal 0.000000e+000 0.000000e+000 1.000000e+000
    outer loop
      vertex 7.870028e-003 -3.664298e-002 2.024435e-002
      vertex 1.450804e-002 -3.462739e-002 2.024435e-002
      vertex 3.686526e-004 -1.870146e-002 2.024435e-002
    endloop
  endfacet
  facet normal 0.000000e+000 0.000000e+000 1.000000e+000
    outer loop
      vertex 1.450804e-002 -3.462739e-002 2.024435e-002
      vertex 2.093353e-002 -3.124203e-002 2.024435e-002
      vertex 1.907011e-002 -1.870146e-002 2.024435e-002
    endloop
  endfacet
  facet normal 0.000000e+000 0.000000e+000 1.000000e+000
    outer loop
      vertex 2.093353e-002 -3.124203e-002 2.024435e-002
      vertex 2.668122e-002 -2.658246e-002 2.024435e-002
      vertex 1.907011e-002 -1.870146e-002 2.024435e-002
    endloop
  endfacet
  facet normal 0.000000e+000 0.000000e+000 1.000000e+000
    outer loop
      vertex 2.668122e-002 -2.658246e-002 2.024435e-002
      vertex 3.132864e-002 -2.098707e-002 2.024435e-002
      vertex 1.907011e-002 -1.870146e-002 2.024435e-002
    endloop
  endfacet
  facet normal 0.000000e+000 0.000000e+000 1.000000e+000
    outer loop
      vertex 3.132864e-002 -2.098707e-002 2.024435e-002
      vertex 3.478865e-002 -1.463701e-002 2.024435e-002
      vertex 1.907011e-002 -1.870146e-002 2.024435e-002
    endloop
  endfacet
  facet normal 0.000000e+000 0.000000e+000 1.000000e+000
    outer loop
      vertex 3.478865e-002 -1.463701e-002 2.024435e-002
      vertex 3.704099e-002 -7.356482e-003 2.024435e-002
      vertex 1.907011e-002 0.000000e+000 2.024435e-002
    endloop
  endfacet
  facet normal 0.000000e+000 0.000000e+000 1.000000e+000
    outer loop
      vertex 3.704099e-002 -7.356482e-003 2.024435e-002
      vertex 3.777157e-002 4.152558e-018 2.024435e-002
      vertex 1.907011e-002 0.000000e+000 2.024435e-002
    endloop
  endfacet
  facet normal 0.000000e+000 0.000000e+000 1.000000e+000
    outer loop
      vertex 3.777157e-002 4.152558e-018 2.024435e-002
      vertex 3.701163e-002 7.501375e-003 2.024435e-002
      vertex 1.907011e-002 0.000000e+000 2.024435e-002
    endloop
  endfacet
  facet normal 0.000000e+000 0.000000e+000 1.000000e+000
    outer loop
      vertex 3.701163e-002 7.501375e-003 2.024435e-002
      vertex 3.499604e-002 1.413939e-002 2.024435e-002
      vertex 1.907011e-002 0.000000e+000 2.024435e-002
    endloop
  endfacet
  facet normal 0.000000e+000 0.000000e+000 1.000000e+000
    outer loop
      vertex 3.499604e-002 1.413939e-002 2.024435e-002
      vertex 3.161068e-002 2.056488e-002 2.024435e-002
      vertex 1.907011e-002 1.870146e-002 2.024435e-002
    endloop
  endfacet
  facet normal 0.000000e+000 0.000000e+000 1.000000e+000
    outer loop
      vertex 3.161068e-002 2.056488e-002 2.024435e-002
      vertex 2.695111e-002 2.631257e-002 2.024435e-002
      vertex 1.907011e-002 1.870146e-002 2.024435e-002
    endloop
  endfacet
  facet normal 0.000000e+000 0.000000e+000 1.000000e+000
    outer loop
      vertex 2.695111e-002 2.631257e-002 2.024435e-002
      vertex 2.135572e-002 3.095999e-002 2.024435e-002
      vertex 1.907011e-002 1.870146e-002 2.024435e-002
    endloop
  endfacet
  facet normal 0.000000e+000 0.000000e+000 1.000000e+000
    outer loop
      vertex 2.135572e-002 3.095999e-002 2.024435e-002
      vertex 1.500566e-002 3.442000e-002 2.024435e-002
      vertex 1.907011e-002 1.870146e-002 2.024435e-002
    endloop
  endfacet
  facet normal 0.000000e+000 0.000000e+000 1.000000e+000
    outer loop
      vertex 1.500566e-002 3.442000e-002 2.024435e-002
      vertex 7.725134e-003 3.667234e-002 2.024435e-002
      vertex 3.686526e-004 1.870146e-002 2.024435e-002
    endloop
  endfacet
  facet normal 0.000000e+000 0.000000e+000 1.000000e+000
    outer loop
      vertex 7.725134e-003 3.667234e-002 2.024435e-002
      vertex 3.686526e-004 3.740292e-002 2.024435e-002
      vertex 3.686526e-004 1.870146e-002 2.024435e-002
    endloop
  endfacet
  facet normal 0.000000e+000 0.000000e+000 1.000000e+000
    outer loop
      vertex 3.686526e-004 1.870146e-002 2.024435e-002
      vertex 1.907011e-002 1.870146e-002 2.024435e-002
      vertex 1.500566e-002 3.442000e-002 2.024435e-002
    endloop
  endfacet
  facet normal 0.000000e+000 0.000000e+000 1.000000e+000
    outer loop
      vertex 1.907011e-002 1.870146e-002 2.024435e-002
      vertex 1.907011e-002 0.000000e+000 2.024435e-002
      vertex 3.499604e-002 1.413939e-002 2.024435e-002
    endloop
  endfacet
  facet normal 0.000000e+000 0.000000e+000 1.000000e+000
    outer loop
      vertex -1.833281e-002 1.870146e-002 2.024435e-002
      vertex 3.686526e-004 1.870146e-002 2.024435e-002
      vertex -1.377074e-002 3.462739e-002 2.024435e-002
    endloop
  endfacet
  facet normal 0.000000e+000 0.000000e+000 1.000000e+000
    outer loop
      vertex -1.833281e-002 0.000000e+000 2.024435e-002
      vertex -1.833281e-002 1.870146e-002 2.024435e-002
      vertex -3.405135e-002 1.463701e-002 2.024435e-002
    endloop
  endfacet
  facet normal 0.000000e+000 0.000000e+000 1.000000e+000
    outer loop
      vertex -1.833281e-002 -1.870146e-002 2.024435e-002
      vertex -1.833281e-002 0.000000e+000 2.024435e-002
      vertex -3.425873e-002 -1.413939e-002 2.024435e-002
    endloop
  endfacet
  facet normal 0.000000e+000 0.000000e+000 1.000000e+000
    outer loop
      vertex 3.686526e-004 -1.870146e-002 2.024435e-002
      vertex -1.833281e-002 -1.870146e-002 2.024435e-002
      vertex -1.426836e-002 -3.442000e-002 2.024435e-002
    endloop
  endfacet
  facet normal 0.000000e+000 0.000000e+000 1.000000e+000
    outer loop
      vertex 1.907011e-002 -1.870146e-002 2.024435e-002
      vertex 3.686526e-004 -1.870146e-002 2.024435e-002
      vertex 1.450804e-002 -3.462739e-002 2.024435e-002
    endloop
  endfacet
  facet normal 0.000000e+000 0.000000e+000 1.000000e+000
    outer loop
      vertex 1.907011e-002 0.000000e+000 2.024435e-002
      vertex 1.907011e-002 -1.870146e-002 2.024435e-002
      vertex 3.478865e-002 -1.463701e-002 2.024435e-002
    endloop
  endfacet
  facet normal 0.000000e+000 0.000000e+000 -1.000000e+000
    outer loop
      vertex -8.762690e-002 -3.755438e-002 0.000000e+000
      vertex -8.762690e-002 -5.438445e-005 0.000000e+000
      vertex -4.362690e-002 -3.755438e-002 0.000000e+000
    endloop
  endfacet
  facet normal 0.000000e+000 0.000000e+000 -1.000000e+000
    outer loop
      vertex -4.362690e-002 -3.755438e-002 0.000000e+000
      vertex 3.731030e-004 -5.438445e-005 0.000000e+000
      vertex 3.731030e-004 -3.755438e-002 0.000000e+000
    endloop
  endfacet
  facet normal 0.000000e+000 0.000000e+000 -1.000000e+000
    outer loop
      vertex 3.731030e-004 -5.438445e-005 0.000000e+000
      vertex -4.362690e-002 3.744562e-002 0.000000e+000
      vertex 3.731030e-004 3.744562e-002 0.000000e+000
    endloop
  endfacet
  facet normal 0.000000e+000 0.000000e+000 -1.000000e+000
    outer loop
      vertex -4.362690e-002 3.744562e-002 0.000000e+000
      vertex -8.762690e-002 -5.438445e-005 0.000000e+000
      vertex -8.762690e-002 3.744562e-002 0.000000e+000
    endloop
  endfacet
  facet normal 0.000000e+000 0.000000e+000 -1.000000e+000
    outer loop
      vertex -8.762690e-002 -5.438445e-005 0.000000e+000
      vertex -4.362690e-002 3.744562e-002 0.000000e+000
      vertex -4.362690e-002 -3.755438e-002 0.000000e+000
    endloop
  endfacet
  facet normal 0.000000e+000 0.000000e+000 -1.000000e+000
    outer loop
      vertex -4.362690e-002 -3.755438e-002 0.000000e+000
      vertex -4.362690e-002 3.744562e-002 0.000000e+000
      vertex 3.731030e-004 -5.438445e-005 0.000000e+000
    endloop
  endfacet
  facet normal 0.000000e+000 0.000000e+000 1.000000e+000
    outer loop
      vertex -8.762690e-002 -3.755438e-002 2.000000e-002
      vertex -4.362690e-002 -3.755438e-002 2.000000e-002
      vertex -8.762690e-002 -5.438445e-005 2.000000e-002
    endloop
  endfacet
  facet normal 0.000000e+000 0.000000e+000 1.000000e+000
    outer loop
      vertex -4.362690e-002 -3.755438e-002 2.000000e-002
      vertex 3.731030e-004 -3.755438e-002 2.000000e-002
      vertex 3.731030e-004 -5.438445e-005 2.000000e-002
    endloop
  endfacet
  facet normal 0.000000e+000 0.000000e+000 1.000000e+000
    outer loop
      vertex 3.731030e-004 -5.438445e-005 2.000000e-002
      vertex 3.731030e-004 3.744562e-002 2.000000e-002
      vertex -4.362690e-002 3.744562e-002 2.000000e-002
    endloop
  endfacet
  facet normal 0.000000e+000 0.000000e+000 1.000000e+000
    outer loop
      vertex -4.362690e-002 3.744562e-002 2.000000e-002
      vertex -8.762690e-002 3.744562e-002 2.000000e-002
      vertex -8.762690e-002 -5.438445e-005 2.000000e-002
    endloop
  endfacet
  facet normal 0.000000e+000 0.000000e+000 1.000000e+000
    outer loop
      vertex -8.762690e-002 -5.438445e-005 2.000000e-002
      vertex -4.362690e-002 -3.755438e-002 2.000000e-002
      vertex -4.362690e-002 3.744562e-002 2.000000e-002
    endloop
  endfacet
  facet normal 0.000000e+000 0.000000e+000 1.000000e+000
    outer loop
      vertex -4.362690e-002 -3.755438e-002 2.000000e-002
      vertex 3.731030e-004 -5.438445e-005 2.000000e-002
      vertex -4.362690e-002 3.744562e-002 2.000000e-002
    endloop
  endfacet
  facet normal 0.000000e+000 -1.000000e+000 0.000000e+000
    outer loop
      vertex -8.762690e-002 -3.755438e-002 0.000000e+000
      vertex -4.362690e-002 -3.755438e-002 0.000000e+000
      vertex -4.362690e-002 -3.755438e-002 2.000000e-002
    endloop
  endfacet
  facet normal 0.000000e+000 -1.000000e+000 0.000000e+000
    outer loop
      vertex -4.362690e-002 -3.755438e-002 0.000000e+000
      vertex 3.731030e-004 -3.755438e-002 0.000000e+000
      vertex 3.731030e-004 -3.755438e-002 2.000000e-002
    endloop
  endfacet
  facet normal 0.000000e+000 -1.000000e+000 0.000000e+000
    outer loop
      vertex 3.731030e-004 -3.755438e-002 2.000000e-002
      vertex -4.362690e-002 -3.755438e-002 2.000000e-002
      vertex -4.362690e-002 -3.755438e-002 0.000000e+000
    endloop
  endfacet
  facet normal 0.000000e+000 -1.000000e+000 0.000000e+000
    outer loop
      vertex -4.362690e-002 -3.755438e-002 2.000000e-002
      vertex -8.762690e-002 -3.755438e-002 2.000000e-002
      vertex -8.762690e-002 -3.755438e-002 0.000000e+000
    endloop
  endfacet
  facet normal 1.000000e+000 0.000000e+000 0.000000e+000
    outer loop
      vertex 3.731030e-004 -3.755438e-002 0.000000e+000
      vertex 3.731030e-004 -5.438445e-005 0.000000e+000
      vertex 3.731030e-004 -5.438445e-005 2.000000e-002
    endloop
  endfacet
  facet normal 1.000000e+000 0.000000e+000 0.000000e+000
    outer loop
      vertex 3.731030e-004 -5.438445e-005 0.000000e+000
      vertex 3.731030e-004 3.744562e-002 0.000000e+000
      vertex 3.731030e-004 3.744562e-002 2.000000e-002
    endloop
  endfacet
  facet normal 1.000000e+000 0.000000e+000 0.000000e+000
    outer loop
      vertex 3.731030e-004 3.744562e-002 2.000000e-002
      vertex 3.731030e-004 -5.438445e-005 2.000000e-002
      vertex 3.731030e-004 -5.438445e-005 0.000000e+000
    endloop
  endfacet
  facet normal 1.000000e+000 0.000000e+000 0.000000e+000
    outer loop
      vertex 3.731030e-004 -5.438445e-005 2.000000e-002
      vertex 3.731030e-004 -3.755438e-002 2.000000e-002
      vertex 3.731030e-004 -3.755438e-002 0.000000e+000
    endloop
  endfacet
  facet normal 0.000000e+000 1.000000e+000 0.000000e+000
    outer loop
      vertex 3.731030e-004 3.744562e-002 0.000000e+000
      vertex -4.362690e-002 3.744562e-002 0.000000e+000
      vertex -4.362690e-002 3.744562e-002 2.000000e-002
    endloop
  endfacet
  facet normal 0.000000e+000 1.000000e+000 0.000000e+000
    outer loop
      vertex -4.362690e-002 3.744562e-002 0.000000e+000
      vertex -8.762690e-002 3.744562e-002 0.000000e+000
      vertex -8.762690e-002 3.744562e-002 2.000000e-002
    endloop
  endfacet
  facet normal 0.000000e+000 1.000000e+000 0.000000e+000
    outer loop
      vertex -8.762690e-002 3.744562e-002 2.000000e-002
      vertex -4.362690e-002 3.744562e-002 2.000000e-002
      vertex -4.362690e-002 3.744562e-002 0.000000e+000
    endloop
  endfacet
  facet normal 0.000000e+000 1.000000e+000 0.000000e+000
    outer loop
      vertex -4.362690e-002 3.744562e-002 2.000000e-002
      vertex 3.731030e-004 3.744562e-002 2.000000e-002
      vertex 3.731030e-004 3.744562e-002 0.000000e+000
    endloop
  endfacet
  facet normal -1.000000e+000 0.000000e+000 0.000000e+000
    outer loop
      vertex -8.762690e-002 3.744562e-002 0.000000e+000
      vertex -8.762690e-002 -5.438445e-005 0.000000e+000
      vertex -8.762690e-002 -5.438445e-005 2.000000e-002
    endloop
  endfacet
  facet normal -1.000000e+000 0.000000e+000 0.000000e+000
    outer loop
      vertex -8.762690e-002 -5.438445e-005 0.000000e+000
      vertex -8.762690e-002 -3.755438e-002 0.000000e+000
      vertex -8.762690e-002 -3.755438e-002 2.000000e-002
    endloop
  endfacet
  facet normal -1.000000e+000 0.000000e+000 0.000000e+000
    outer loop
      vertex -8.762690e-002 -3.755438e-002 2.000000e-002
      vertex -8.762690e-002 -5.438445e-005 2.000000e-002
      vertex -8.762690e-002 -5.438445e-005 0.000000e+000
    endloop
  endfacet
  facet normal -1.000000e+000 0.000000e+000 0.000000e+000
    outer loop
      vertex -8.762690e-002 -5.438445e-005 2.000000e-002
      vertex -8.762690e-002 3.744562e-002 2.000000e-002
      vertex -8.762690e-002 3.744562e-002 0.000000e+000
    endloop
  endfacet
endsolid OBJECT
