<?xml version="1.0" encoding="utf-8"?>
<!-- Generator: Adobe Illustrator 14.0.0, SVG Export Plug-In . SVG Version: 6.00 Build 43363)  -->
<!DOCTYPE svg PUBLIC "-//W3C//DTD SVG 1.1//EN" "http://www.w3.org/Graphics/SVG/1.1/DTD/svg11.dtd">
<svg version="1.1" id="Layer_1" xmlns="http://www.w3.org/2000/svg" xmlns:xlink="http://www.w3.org/1999/xlink" x="0px" y="0px"
	 width="105.298px" height="77.815px" viewBox="0 0 105.298 77.815" enable-background="new 0 0 105.298 77.815"
	 xml:space="preserve">
<g>
	<path fill="#2E79B8" d="M56.127,40.628c-4.51-1.444-8.645-5.12-12.541-7.682c-3.608-2.353-10.152-7.661-14.755-7.654
		c-4.683,0.026,3.11,4.484,4.412,5.379c-2.604-0.099-5.621-1.805-8.164-1.009c0.642,2.008,5.808,3.805,7.757,4.85
		c-2.479-0.943-5.159-1.196-7.724-1.732c0.313,1.022,1.886,1.649,2.896,2.171c3.366,1.855,6.5,3.518,9.641,5.789
		c6.395,4.622,10.547,7.433,18.665,6.922"/>
	<path fill="#86C6DE" d="M48.126,71.792c0.32-0.997,2.408-2.005,3.324-2.351c-1.674,0.324-3.669,0.292-1.85-1.544
		c1.64-1.635,4.069-2.547,6.16-3.451c-1.896,0.033-7.915,0.779-4.236-2.186c3.011-2.387,7.535-4.607,11.265-5.602
		c-0.959,0.053-4.518,0.832-4.578-0.383c-0.014-0.695,2.01-2.014,2.442-2.361c1.958-1.652,4.014-3.209,6.251-4.457
		c5.043-2.816,12.156-4.834,17.653-1.969c1.209,0.622,1.743,1.637,1.882,2.761c3.263-7.71,3.687-16.642,0.741-25.187
		C82.79,12.394,67.5,3.771,55.94,13.717c-11.819,10.17-8.582,29.761-18.877,41.429c-9.509,10.807-22.491,10.123-32.706,1.15
		C15.692,73.429,33.901,76.439,50.104,73.77C48.925,73.478,47.781,73.009,48.126,71.792"/>
	<path fill="#C1E7F0" d="M86.439,50.25c-0.139-1.124-0.673-2.139-1.882-2.761c-5.497-2.865-12.61-0.848-17.652,1.969
		c-2.238,1.248-4.294,2.805-6.252,4.457c-0.433,0.348-2.456,1.666-2.442,2.361c0.061,1.215,3.619,0.436,4.578,0.383
		c-3.729,0.994-8.254,3.215-11.265,5.602c-3.679,2.965,2.341,2.219,4.236,2.186c-2.09,0.904-4.521,1.816-6.16,3.451
		c-1.819,1.836,0.176,1.868,1.85,1.543c-0.916,0.347-3.004,1.354-3.324,2.352c-0.345,1.217,0.799,1.686,1.978,1.978
		c7.327-1.206,14.23-3.555,19.912-6.312C77.734,63.749,83.347,57.554,86.439,50.25"/>
	<path fill="#FFFFFF" d="M77.535,26.266c0.576,4.729-1.414,8.867-4.42,9.228c-3.014,0.381-5.918-3.181-6.49-7.916
		c-0.578-4.718,1.371-8.863,4.406-9.226C74.031,17.996,76.966,21.505,77.535,26.266"/>
	<path d="M71.469,22.026c-1.346,0.167-2.331,1.665-2.523,3.611l2.984,0.828l-2.634,2.298c0.613,1.931,1.988,3.234,3.384,3.074
		c1.693-0.209,2.844-2.601,2.504-5.295C74.86,23.835,73.197,21.803,71.469,22.026"/>
	<path fill="#2E79B8" d="M87.707,26.858c0.619,2.022,6.591-0.231,7.672-0.877c1.85-1.105,3.405-2.584,4.343-4.487
		c-0.306,4.071-4.508,11.743-10.492,10.947c4.406,1.089,8.837,1.479,13.804-0.833c-0.552,0.688-0.838,0.93-1.334,1.393
		c-1.451,1.371-3.167,2.276-5.047,3.005c-2.529,0.967-6.513,1.929-9.216,1.131c-2.532-0.75-4.101-3.695-3.29-6.18
		c0.521-1.779,2.019-3.211,3.502-4.283"/>
	<path fill="#2E79B8" d="M62.122,24.547C60.359,13.58,66.98,10.538,72.957,13.89C64.329,11.902,62.044,19.36,62.122,24.547"/>
	<path fill="#86C6DE" d="M49.926,45.333c-4.64-0.889-9.176-4.049-13.382-6.097c-3.896-1.896-10.994-6.37-15.578-5.764
		c-4.624,0.583,3.628,4.058,5.05,4.787c-2.591,0.223-5.803-1.109-8.225-0.013c0.873,1.924,6.225,3.064,8.3,3.857
		c-2.588-0.618-5.268-0.529-7.884-0.758c0.398,0.973,2.068,1.398,3.141,1.803c3.532,1.402,6.9,2.693,10.271,4.566
		c6.915,3.795,11.375,6.066,19.376,4.57"/>
	<path fill="#C1E7F0" d="M47.812,27.144c0.455-6.112,8.497-20.688,13.871-23.321c-0.063,1.442-0.893,2.809-1.947,3.835
		c2.114-2.517,5.155-4.37,8.339-5.036c-0.184,2.212-3.24,3.661-5.09,4.506c1.408-0.551,8.812-4.493,9.779-2.605
		c1.138,2.136-5.045,3.594-6.078,4.052c-6.192,2.571-11.691,6.594-15.807,11.872"/>
</g>
</svg>
