solid stl file generated from AC3D
 facet normal 0.000000 -1.000000 0.000000
  outer loop
   vertex -0.116739 -0.130104 -0.250541
   vertex 0.116960 -0.130104 -0.001404
   vertex -0.116739 -0.130104 -0.001404
  endloop
 endfacet
 facet normal 0.000000 -1.000000 0.000000
  outer loop
   vertex 0.116960 -0.130104 -0.001404
   vertex -0.116739 -0.130104 -0.250541
   vertex 0.116960 -0.130104 -0.250541
  endloop
 endfacet
 facet normal 0.000000 1.000000 0.000000
  outer loop
   vertex 0.116960 0.134473 -0.250541
   vertex -0.116739 0.134473 -0.001404
   vertex 0.116960 0.134473 -0.001404
  endloop
 endfacet
 facet normal 0.000000 1.000000 0.000000
  outer loop
   vertex -0.116739 0.134473 -0.001404
   vertex 0.116960 0.134473 -0.250541
   vertex -0.116739 0.134473 -0.250541
  endloop
 endfacet
 facet normal 0.000000 0.000000 1.000000
  outer loop
   vertex -0.116739 0.134473 -0.001404
   vertex 0.116960 -0.130104 -0.001404
   vertex 0.116960 0.134473 -0.001404
  endloop
 endfacet
 facet normal 0.000000 0.000000 1.000000
  outer loop
   vertex 0.116960 -0.130104 -0.001404
   vertex -0.116739 0.134473 -0.001404
   vertex -0.116739 -0.130104 -0.001404
  endloop
 endfacet
 facet normal 0.000000 0.000000 -1.000000
  outer loop
   vertex -0.116739 -0.130104 -0.250541
   vertex 0.116960 0.134473 -0.250541
   vertex 0.116960 -0.130104 -0.250541
  endloop
 endfacet
 facet normal 0.000000 0.000000 -1.000000
  outer loop
   vertex 0.116960 0.134473 -0.250541
   vertex -0.116739 -0.130104 -0.250541
   vertex -0.116739 0.134473 -0.250541
  endloop
 endfacet
 facet normal -1.000000 0.000000 0.000000
  outer loop
   vertex -0.116739 -0.130104 -0.250541
   vertex -0.116739 0.134473 -0.001404
   vertex -0.116739 0.134473 -0.250541
  endloop
 endfacet
 facet normal -1.000000 0.000000 0.000000
  outer loop
   vertex -0.116739 0.134473 -0.001404
   vertex -0.116739 -0.130104 -0.250541
   vertex -0.116739 -0.130104 -0.001404
  endloop
 endfacet
 facet normal 1.000000 0.000000 0.000000
  outer loop
   vertex 0.116960 -0.130104 -0.001404
   vertex 0.116960 0.134473 -0.250541
   vertex 0.116960 0.134473 -0.001404
  endloop
 endfacet
 facet normal 1.000000 0.000000 0.000000
  outer loop
   vertex 0.116960 0.134473 -0.250541
   vertex 0.116960 -0.130104 -0.001404
   vertex 0.116960 -0.130104 -0.250541
  endloop
 endfacet
endsolid
