solid stl file generated from AC3D
 facet normal 0.000000 -1.000000 0.000000
  outer loop
   vertex -0.112642 -0.160060 -0.248628
   vertex 0.115916 -0.160060 -0.000228
   vertex -0.112642 -0.160060 -0.000228
  endloop
 endfacet
 facet normal 0.000000 -1.000000 0.000000
  outer loop
   vertex 0.115916 -0.160060 -0.000228
   vertex -0.112642 -0.160060 -0.248628
   vertex 0.115916 -0.160060 -0.248628
  endloop
 endfacet
 facet normal 0.000000 1.000000 0.000000
  outer loop
   vertex 0.115916 0.108183 -0.248628
   vertex -0.112642 0.108183 -0.000228
   vertex 0.115916 0.108183 -0.000228
  endloop
 endfacet
 facet normal 0.000000 1.000000 0.000000
  outer loop
   vertex -0.112642 0.108183 -0.000228
   vertex 0.115916 0.108183 -0.248628
   vertex -0.112642 0.108183 -0.248628
  endloop
 endfacet
 facet normal 0.000000 0.000000 1.000000
  outer loop
   vertex -0.112642 0.108183 -0.000228
   vertex 0.115916 -0.160060 -0.000228
   vertex 0.115916 0.108183 -0.000228
  endloop
 endfacet
 facet normal 0.000000 0.000000 1.000000
  outer loop
   vertex 0.115916 -0.160060 -0.000228
   vertex -0.112642 0.108183 -0.000228
   vertex -0.112642 -0.160060 -0.000228
  endloop
 endfacet
 facet normal 0.000000 0.000000 -1.000000
  outer loop
   vertex -0.112642 -0.160060 -0.248628
   vertex 0.115916 0.108183 -0.248628
   vertex 0.115916 -0.160060 -0.248628
  endloop
 endfacet
 facet normal 0.000000 0.000000 -1.000000
  outer loop
   vertex 0.115916 0.108183 -0.248628
   vertex -0.112642 -0.160060 -0.248628
   vertex -0.112642 0.108183 -0.248628
  endloop
 endfacet
 facet normal -1.000000 0.000000 0.000000
  outer loop
   vertex -0.112642 -0.160060 -0.248628
   vertex -0.112642 0.108183 -0.000228
   vertex -0.112642 0.108183 -0.248628
  endloop
 endfacet
 facet normal -1.000000 0.000000 0.000000
  outer loop
   vertex -0.112642 0.108183 -0.000228
   vertex -0.112642 -0.160060 -0.248628
   vertex -0.112642 -0.160060 -0.000228
  endloop
 endfacet
 facet normal 1.000000 0.000000 0.000000
  outer loop
   vertex 0.115916 -0.160060 -0.000228
   vertex 0.115916 0.108183 -0.248628
   vertex 0.115916 0.108183 -0.000228
  endloop
 endfacet
 facet normal 1.000000 0.000000 0.000000
  outer loop
   vertex 0.115916 0.108183 -0.248628
   vertex 0.115916 -0.160060 -0.000228
   vertex 0.115916 -0.160060 -0.248628
  endloop
 endfacet
endsolid
